# xmcd CD database file
#
# Track frame offsets:
#	150
#	22262
#	37237
#	49181
#	64685
#	80506
#	103313
#	119532
#	134256
#	158051
#
# Disc length: 2253 seconds
#
# Revision: 7
# Processed by: cddbd v1.5.2PL0 Copyright (c) Steve Scherf et al.
# Submitted via: CDex 1.51
#
DISCID=9008cb0a
DTITLE=B.B. King - Paying The Cost To Be The Boss
DYEAR=1997
DGENRE=Blues
TTITLE0=The Thrill Is Gone
TTITLE1=B.B. Boogie
TTITLE2=Paying The Cost To Be The Boss
TTITLE3=How Blue Can You Get 
TTITLE4=The Letter
TTITLE5=Everyday I Have The Blues
TTITLE6=It's My Own Fault
TTITLE7=Mr. Pawnbroker
TTITLE8=You've Done Lost Your Good Thing Now
TTITLE9=Catfish Blues
EXTD=YEAR: 1997
EXTT0=
EXTT1=
EXTT2=
EXTT3=
EXTT4=
EXTT5=
EXTT6=
EXTT7=
EXTT8=
EXTT9=
PLAYORDER=
